<svg width="1200" height="630" viewBox="0 0 1200 630" xmlns="http://www.w3.org/2000/svg">
  <!-- Background gradient -->
  <defs>
    <linearGradient id="bgGradient" x1="0%" y1="0%" x2="100%" y2="100%">
      <stop offset="0%" style="stop-color:#003B57;stop-opacity:1" />
      <stop offset="100%" style="stop-color:#0074D9;stop-opacity:1" />
    </linearGradient>
    <filter id="glow">
      <feGaussianBlur stdDeviation="3" result="coloredBlur"/>
      <feMerge> 
        <feMergeNode in="coloredBlur"/>
        <feMergeNode in="SourceGraphic"/>
      </feMerge>
    </filter>
  </defs>
  
  <rect width="1200" height="630" fill="url(#bgGradient)"/>
  
  <!-- Main content container -->
  <g>
    <!-- Database icon -->
    <g transform="translate(200, 150)">
      <!-- Database cylinder base -->
      <ellipse cx="0" cy="80" rx="80" ry="18" fill="#4A90E2"/>
      <!-- Database cylinder top -->
      <ellipse cx="0" cy="20" rx="80" ry="18" fill="#0074D9"/>
      <!-- Database cylinder side -->
      <rect x="-80" y="20" width="160" height="60" fill="#0074D9"/>
      
      <!-- Data visualization lines -->
      <rect x="-70" y="30" width="140" height="4" fill="#FFFFFF" opacity="0.8"/>
      <rect x="-60" y="40" width="120" height="4" fill="#FFFFFF" opacity="0.6"/>
      <rect x="-65" y="50" width="130" height="4" fill="#FFFFFF" opacity="0.5"/>
      <rect x="-55" y="60" width="110" height="4" fill="#FFFFFF" opacity="0.4"/>
      <rect x="-70" y="70" width="140" height="4" fill="#FFFFFF" opacity="0.3"/>
      
      <!-- Performance rings around database -->
      <circle cx="0" cy="50" r="100" fill="none" stroke="#FECB05" stroke-width="2" opacity="0.3" stroke-dasharray="5,5"/>
      <circle cx="0" cy="50" r="120" fill="none" stroke="#FECB05" stroke-width="1" opacity="0.2" stroke-dasharray="8,8"/>
    </g>
    
    <!-- Sails anchor -->
    <g transform="translate(200, 100)">
      <path d="M0,-35 L-15,-15 L-12,-12 L0,-30 L12,-12 L15,-15 Z" fill="#FECB05" stroke="#E6B800" stroke-width="2" filter="url(#glow)"/>
      <circle cx="0" cy="-18" r="5" fill="#FFFFFF"/>
      <path d="M0,-12 L0,25" stroke="#FECB05" stroke-width="5" stroke-linecap="round" filter="url(#glow)"/>
      <path d="M-25,20 Q0,35 25,20" stroke="#FECB05" stroke-width="4" fill="none" stroke-linecap="round" filter="url(#glow)"/>
    </g>
    
    <!-- Title -->
    <text x="450" y="200" font-family="system-ui, -apple-system, sans-serif" font-size="72" font-weight="700" fill="#FFFFFF">
      Sails SQLite
    </text>
    
    <!-- Subtitle -->
    <text x="450" y="250" font-family="system-ui, -apple-system, sans-serif" font-size="32" font-weight="400" fill="#4A90E2">
      Production-ready SQLite adapter for Sails.js
    </text>
    
    <!-- Features -->
    <g transform="translate(450, 300)">
      <text x="0" y="0" font-family="system-ui, -apple-system, sans-serif" font-size="24" font-weight="600" fill="#FECB05">✨ Key Features:</text>
      
      <text x="0" y="35" font-family="system-ui, -apple-system, sans-serif" font-size="20" font-weight="400" fill="#FFFFFF">
        🚀 WAL Mode & Memory-Mapped I/O
      </text>
      
      <text x="0" y="65" font-family="system-ui, -apple-system, sans-serif" font-size="20" font-weight="400" fill="#FFFFFF">
        ⚡ Prepared Statement Caching
      </text>
      
      <text x="0" y="95" font-family="system-ui, -apple-system, sans-serif" font-size="20" font-weight="400" fill="#FFFFFF">
        💾 Optimized Batch Operations
      </text>
      
      <text x="0" y="125" font-family="system-ui, -apple-system, sans-serif" font-size="20" font-weight="400" fill="#FFFFFF">
        🔒 Transaction Support & Health Checks
      </text>
    </g>
    
    <!-- Performance indicators -->
    <g opacity="0.4">
      <path d="M50,50 L70,30 M60,65 L80,45 M70,80 L90,60" stroke="#FECB05" stroke-width="3" stroke-linecap="round"/>
      <path d="M1100,50 L1120,30 M1110,65 L1130,45 M1120,80 L1140,60" stroke="#FECB05" stroke-width="3" stroke-linecap="round"/>
    </g>
    
    <!-- Bottom branding -->
    <text x="600" y="580" text-anchor="middle" font-family="system-ui, -apple-system, sans-serif" font-size="18" font-weight="400" fill="#FFFFFF" opacity="0.7">
      docs.sailscasts.com/sails-sqlite
    </text>
  </g>
</svg>
